<?xml version="1.0" encoding="UTF-8"?><svg xmlns="http://www.w3.org/2000/svg" xmlns:xlink="http://www.w3.org/1999/xlink" viewBox="0 0 416.25 436.5"><defs><style>.gx{fill:#7dd4c0;}.gy{fill:#fff;}.h`{fill:#995d4d;}.ha{fill:#3d3d3d;}.hb{fill:#dbdbdb;}.hc{clip-path:url(#ga);}.hd{fill:#8f5845;}.he{fill:#ddac6e;}.hf{fill:#4a4a4a;}.hg{fill:#cf985d;}.hh{fill:#68a9fb;}.hi{clip-path:url(#dm);}.hj{fill:#24404e;}.hk{fill:#244060;}.hl{fill:#467cdc;}.hm{fill:#e6e8e0;}.hn{opacity:.3;}.ho{fill:#dbb593;}.hp{fill:#783f34;}.hq{clip-path:url(#fv);}.hr{fill:#f5f6f4;}.hs{fill:#69686b;}.ht{clip-path:url(#c);}.hu{clip-path:url(#dx);}.hv{fill:#4d555b;}.hw{fill:#494949;}.hx{fill:none;}.hy{fill:#63ac9a;}.i`{clip-path:url(#cj);}.ia{clip-path:url(#f);}.ib{fill:#3b69aa;}.ic{fill:#c07e48;}.id{clip-path:url(#co);}.ie{fill:#03c4a1;stroke:#fff;stroke-miterlimit:10;stroke-width:.75px;}.if{fill:#360000;}.ig{fill:#864e3f;}.ih{opacity:.2;}.ii{fill:#f3f3f3;}.ij{fill:#b6bbbb;}.ik{fill:#430602;}.il{clip-path:url(#i);}.im{fill:#4f1111;}.in{fill:#4b5e75;}.io{fill:#70c2b1;}</style><clipPath id="c"><rect class="hx" x="113.84" y="83.75" width="260.21" height="184.18"/></clipPath><clipPath id="f"><rect class="hx" x="153.84" y="87.52" width="180.21" height="176.66"/></clipPath><clipPath id="i"><rect class="hx" x="153.84" y="87.52" width="180.21" height="176.66"/></clipPath><clipPath id="cj"><rect class="hx" x="215.4" y="109.81" width="5.66" height="3.38"/></clipPath><clipPath id="co"><rect class="hx" x="222.93" y="109.81" width="5.66" height="3.38"/></clipPath><clipPath id="dm"><rect class="hx" x="231.66" y="169.93" width="5.86" height="11.4"/></clipPath><clipPath id="dx"><rect class="hx" x="206.54" y="169.93" width="5.86" height="11.4"/></clipPath><clipPath id="fv"><rect class="hx" x="256.93" y="103.63" width="7.04" height="3.92"/></clipPath><clipPath id="ga"><rect class="hx" x="266.3" y="103.63" width="7.04" height="3.92"/></clipPath></defs><g id="a"><g><g><path class="ie" d="M81.73,183.56s-.04,.02-.06,.03c-.76,.25-1.61,.37-2.19,.93-1.2,1.18-.55,3.69-2.06,4.47-.87,.44-1.97-.03-2.88,.33-1.41,.55-1.45,2.55-2.42,3.72-1.04,1.26-3.28,1.2-4.24-.11-.05,1.6-.1,3.19-.15,4.79h-27.06v-15.33c-3.38,.22-6.13,3.9-9.36,4.92-1.21,.38-2.49,.36-3.75,.32-1.08-.03-2.17-.05-3.25-.08-.37-.02-.77-.03-1.05-.28-.26-.24-.34-.63-.39-.99-.19-1.22-.37-2.43-.56-3.65-1.79,.83-3.95-.09-5.39-1.43-1.45-1.34-2.47-3.09-3.91-4.43-1.52-1.4-3.62-2.61-3.83-4.67-.14-1.36,.64-2.85-.04-4.04-.25-.43-.65-.75-1.01-1.1-2.49-2.37-2.8-6.18-2.94-9.62-.08-1.74,.2-3.97,1.89-4.4,.2-.06,.43-.08,.66-.08l74.02,30.7Z"/><path class="ie" d="M154.68,202.95l-11,18.61c-13.71-1.58-26.57-9.01-38.48-16.03-2.25-1.33-4.58-2.71-6.17-4.8-2.1-2.75-2.67-6.37-2.82-9.83-.14-3.37-.14-7.2-2.62-9.48-.94-.87-2.19-1.4-3.46-1.5l24.12-18.27h8.56l7.34,10.09,3.99-.08v21.51l16.23-.33-.83,4.47-4.64,.33,3.48,4.3,6.29,1Z"/><path class="ie" d="M165.18,148.13l4.41,8.52-5.79,14.48-29.66,.54-3.99,.08-7.34-10.09h-8.56l-24.12,18.27c-.65-.06-1.33,0-1.97,.16-2.36,.64-4.11,2.71-6.43,3.48L7.72,152.86c1,0,2.08,.36,2.76-.32,.37-.37,.46-.93,.53-1.45,.15-1.19,.27-2.39,.2-3.59-.1-1.88-.67-3.79-.2-5.62,.47-1.82,2.66-3.39,4.22-2.33-.37-2.38-.66-4.36-.43-6.76,.03-.35,.09-.71,.31-.98,.25-.27,.64-.37,1-.4,1.48-.13,3.21,.36,4.3-.65,.56-.52,.79-1.31,1.28-1.9,1.9-2.34,6.1-.35,8.49-2.18,1.28-.98,1.66-2.82,2.89-3.86,2.65-2.25,7.17,.42,10.04-1.56,1.25-.86,1.82-2.4,2.32-3.85,.94-2.71,1.88-5.44,2.82-8.15,.74-2.14,1.49-4.35,1.4-6.61-.11-2.71-1.43-5.24-1.72-7.94-.39-3.7,1.11-7.78-.77-10.98-.94-1.62-2.6-2.68-3.81-4.11-1.21-1.43-1.9-3.7-.67-5.11,.97-1.12,2.69-1.18,4.15-.94,1.46,.26,2.96,.71,4.4,.34,1.44-.38,2.64-2.09,1.85-3.35,.21-.64-.27-1.28-.89-1.57-.61-.28-1.32-.26-2-.3-.68-.04-1.4-.17-1.88-.65-.66-.66-.6-1.73-.48-2.65,.14-1.09,.31-2.18,.52-3.25,.09-.48,.19-.97,.48-1.35,.26-.34,.65-.55,1.04-.73,1.57-.7,3.35-.83,5.07-.71,1.72,.12,3.41,.47,5.12,.7,.53,.07,1.07,.12,1.59,0,.52-.11,1.01-.43,1.22-.93,.14-.34,.12-.71,.19-1.07,.07-.37,.27-.74,.63-.83,.2-.04,.41,.02,.6,.09,1,.37,1.88,1,2.55,1.8,.26,.32,.54,.69,.94,.77,.48,.09,.91-.27,1.24-.63,.76-.83,1.4-1.75,2.17-2.56,.77-.82,1.73-1.51,2.83-1.7,.39,1.5,0,3.07-.3,4.59s-.45,3.2,.33,4.53c1.04,1.75,3.16,2.65,3.82,4.59l17.49-.86,11.52-3.84,1.14-5.4,6.54-.14,.21-2.3,5.44,2.02v5.45l4.08,3.57-.34,4.6-4.77,5.95,5.45,4.94,1.02,7.66,5.11,3.57,3.06-.85,2.89-9.2,6.81,.51,5.04-7.52,12.33-.48,.09,.22,6.38,15.11,22.99,9.2-25.2,47.17Z"/><path class="ie" d="M164.31,64.95l-3.3,11.71-.09-.22-12.33,.48-5.04,7.52-6.81-.51-2.89,9.2-3.06,.85-5.11-3.57-1.02-7.66-5.45-4.94,4.77-5.95,.34-4.6-4.08-3.57v-5.45l-5.44-2.02,.21-2.25-8.11,.43-.43-14.93-8.68-7.68,12.66,3.7,3.13,3.27,6.4,.29,1.57,1.7,2.28-3.69c1.95,0,3.9,.17,5.85,.1,.51-.02,1.05-.04,1.51-.3,.91-.51,1.13-1.75,1.9-2.47,1-.92,2.54-.71,3.85-1.02,2.25-.54,3.76-2.57,4.97-4.53,.8-1.29,1.58-2.66,2.83-3.53,1.24-.88,3.11-1.07,4.2-.02,1.18,1.15,.93,3.09,.52,4.69-.08,.29-.14,.62,.03,.87,.12,.19,.35,.28,.56,.36,.79,.28,1.58,.57,2.37,.86l-3.14,24.62,5.83,4.69,.71,3.7c2.88,0,5.69-.05,8.51-.08Z"/><path class="ie" d="M244.86,218.23l-23.25,30.28,.92,17.7v.04l-8.26-1.23v-8.26l-5.2,5.5-7.65-1.23-7.95-3.97-11.63,.92-7.49,14.41v-.3c.5-1.7,.52-3.53,.04-5.24-.36-1.28-1.24-2.36-1.83-3.56-.48-.96-.77-2.02-.87-3.08-.04-.52-.04-1.06-.26-1.53-.34-.72-1.11-1.11-1.79-1.51-1.3-.76-2.5-1.68-3.55-2.76-.66-.67-1.3-1.6-.98-2.48,.4-1.07,.08-1.83-.04-2.97-.06-.52-.17-1.05-.51-1.44-.47-.55-1.24-.7-1.96-.77-4.44-.48-8.9,.28-13.34,.67-.35,.03-.73,.05-1.01-.16-.21-.16-.32-.43-.38-.7-.38-1.57,.24-3.26-.2-4.81-.5-1.74-2.19-2.83-3.25-4.32-.46-.65-.81-1.46-.61-2.24,.19-.72,.81-1.25,1.46-1.61,.65-.37,1.38-.6,2-1.02,1.14-.77,1.84-2.14,1.8-3.5-.03-1.37-.8-2.7-1.97-3.4-.53-.31-1.11-.52-1.62-.85-1.05-.7-1.65-1.99-1.51-3.23-.09,0-.2-.03-.29-.03l11-18.61-6.29-1-3.48-4.3,4.64-.33,.83-4.47-16.23,.33v-21.51l29.66-.54,5.79-14.48,.32-.82,7.65,16.52,69.84,9.94,1.13,.16-4.59,18.35,.45,8.58,.47,8.86Z"/><path class="ie" d="M253.71,68.03c-.29,.94-.83,1.75-1.26,2.62-.35,.7-.61,1.44-.79,2.19l-13.41,12.29v7.46l-5.71-.11-20.4-28.51-7.78,.11-.17-9.82c4.84-.77,9.6,2.24,14.55,2.56,2.08,.14,4.15-.2,6.2-.54,3.11-3.45,5.61-7.2,7.38-11.49,1.25-3.04,2.19-6.33,4.45-8.71,.12-.14,.26-.26,.43-.3,.25-.04,.48,.11,.65,.28,1.5,1.39,1.68,3.64,2.08,5.64,1.01,5.07,4,9.61,4.79,14.73,.06,.4,.12,.83,.38,1.12,.2,.23,.48,.35,.77,.43,1.38,.37,2.88-.16,4.27,.19,1.23,.31,2.21,1.32,2.77,2.47,.56,1.14,.76,2.42,.91,3.69,.14,1.24,.24,2.52-.13,3.71Z"/><path class="ie" d="M338.05,111.53l-11.13,18.05v19.92h-8.04c-20.64,4.68-23.52,23.39-23.52,23.39l-.12,13.32-.48,.56-4.67-.2-5.52-10.2,.12-7.8h5.76v-6.6h-6.12l-4.93-3.48-.36-21.6-8.15-6.08,15.35-12.42,6.99-24.86c1,.1,2.02,.33,3,.38,.99,.05,2,.1,2.93,.45,.84,.31,1.57,.85,2.3,1.39,1.18,.87,2.36,1.74,3.55,2.6,.71,.52,1.44,1.05,2.29,1.28,.84,.22,1.74,.13,2.59,.31,1.51,.34,2.71,1.52,3.59,2.81,.88,1.28,1.56,2.71,2.56,3.9,.36,.43,.79,.84,1.34,.96,.71,.16,1.45-.21,1.99-.71,.54-.5,.94-1.12,1.48-1.63,5.22,1.66,10.15,4.78,15.51,5.95,.56,.12,1.13,.22,1.69,.31Z"/><path class="ie" d="M368.77,150.75l4.19,9.71-5.05,5.36-6.7-7.18h-9.02l.07-2.9-7.52-43.73c2.17,.05,4.34,.08,6.49,.27,5.6,.51,11.08,2.19,16,4.91,2.43,1.34,4.71,2.93,6.99,4.51,2.19,1.52,4.38,3.04,6.58,4.56,1.05,.72,2.1,1.46,3,2.36-2.31,3.4-8.89,13.09-12.52,18.45-1.5,2.2-2.5,3.67-2.5,3.67Z"/><path class="ie" d="M411.09,146.38v6.23l-14.95-3.83h-2.2v5.29h-6.24v-6.55l-8.75,2.84-5.37-3.16-2.31-.13c3.63-5.36,10.22-15.05,12.52-18.45,.1,.1,.2,.2,.31,.31,1.91,2.07,3.67,4.53,6.14,5.87,1.22,.66,2.63,.85,4.01,.98,4.34,.38,8.74,.21,13.03-.49,.66,1.85,.66,4.04,1.09,5.96,.43,1.92,1.19,3.89,2.72,5.12Z"/><path class="ie" d="M411.09,152.6v8.18l-5.32,4.32-8.21,.48-7.41,4.89-4.35-11.52-7.81,6.24-4.89-4.89-.15,.16-4.19-9.71s1-1.47,2.5-3.67l2.31,.13,5.37,3.16,8.75-2.84v6.55h6.24v-5.29h2.2l14.95,3.83Z"/><path class="ie" d="M411.09,160.79v9.03c-.08,1.44-1.11,2.72-2,3.86-.88,1.13-1.92,2.15-2.71,3.36-.22,.34-.43,.69-.6,1.05l-7.66,1.94-10.41,.55-5.13-4.41-2.68-.31-5.85,3.28-.07,.03-10.73-8.12-12.15,9.78-4.91-6.99,.25,.05-.07-3.25,5.64-4.56,.17-7.42h9.02l6.7,7.18,5.05-5.36,.15-.16,4.89,4.89,7.81-6.24,4.35,11.52,7.41-4.89,8.21-.48,5.32-4.32Z"/><path class="ie" d="M405.78,178.08c-1.38,2.68-1.89,5.84-3.84,8.13-1.22,1.43-2.96,2.41-4.81,2.71,.11,1.11,.04,2.31,.16,3.4,.02,.18,.03,.39-.1,.51-.09,.08-.23,.09-.35,.1-1.5,.11-2.99,.2-4.49,.29-.06,.09-.12,.18-.18,.26l-12.67-1.51v-3.98h-5.52l.07-8.87,5.85-3.28,2.68,.31,5.13,4.41,10.41-.55,7.66-1.94Z"/><path class="ie" d="M392.16,193.49c-2.59,3.85-6.37,6.69-9.32,10.29-.26,.31-.5,.64-.71,.99l-3.5-1.23-5.76-4.26v-6.86h6.63v-.43l12.67,1.51Z"/><path class="ie" d="M382.13,204.77c-.13,.2-.23,.41-.31,.63-.45,1.17-.32,2.69-1.33,3.44-.33,.24-.74,.36-1.07,.6-1.12,.84-.77,2.59-1.09,3.95-.41,1.7-1.94,2.86-3.36,3.87-2.3,1.62-4.73,3.3-7.53,3.57-.65,.07-1.47,.14-1.74,.75-.26,.61,.24,1.24,.56,1.82,.41,.74,.55,1.63,.39,2.47v22.47c-.77,1.31-2.18,2.26-3.12,3.45-1.71,2.15-1.6,5.17-1.73,7.92-.03,.54-.07,1.1-.26,1.62-.26,.69-.77,1.26-1.13,1.91-1.51,2.64-.4,6.04-1.26,8.97h-5.39c-2.24-2.27-7.89-8.28-8.03-10.95-.16-3.33,7.34-7.34,7.43-8.76,.08-1.41-10.92-11.67-10.92-11.67l-7.59,.25-7.67-5.84-13.1-.5-.83-5.84-13.01,9.09-8.25,.59-.32-4.59,.91,.02,.31-23.65,.17-13.55-6.72,.12,8.63-10.12,6.61,.28,3.96,7.44,8.4-3.85,5.64-6.48-5.16-5.76,24.24,.37,5.15-5.52,2.59,.55,4.91,6.99,12.15-9.78,10.73,8.12,.07-.03-.07,8.87h5.52v4.41h-6.63v6.86l5.76,4.26,3.5,1.23Z"/><path class="ie" d="M353.57,273.9c-.32,3.48-.77,7.04-1.04,10.49-.18,2.27-.36,4.54-.85,6.76-.25,1.1-.58,2.19-1.22,3.12-.66,.97-1.62,1.69-2.41,2.57-1.02,1.15-1.72,2.57-2.01,4.07-.21,1.08-.24,2.25-.9,3.14-.75,1-2.08,1.31-3.31,1.56-.9,.18-1.81,.36-2.72,.54,0,.09,0,.2,0,.29-3.16-2.73-7.43-6.32-8.69-7.38-.24-.2-.37-.31-.37-.31l-.42-6.17,6.01-.5,4.34-10.68,.5-11.59,4.76-.16,8.33,4.24Z"/><path class="ie" d="M270.9,130.83l-6.32,5.11,8.49,1.09-12.63,30.72-13.03,14.54-69.84-9.94-7.65-16.52-.32,.82-4.41-8.52,25.2-47.17-22.99-9.2-6.38-15.11,3.3-11.71c2.88-.03,5.76-.04,8.69,.05,1.48-.97,2.88-1.8,4.27-2.89,4.21-.21,8.28-.49,12.48-.88,.37-.03,.76-.08,1.05-.3,.33-.26,.48-.68,.56-1.09,.2-.87,.21-1.79,.05-2.66-.05-.29-.12-.6,0-.87,.09-.2,.26-.35,.45-.47,1.19-.8,2.72-.88,4.15-.78,1.43,.1,2.87,.37,4.29,.17,1.17-.16,2.25-.63,3.4-.87,.16-.03,.32-.07,.48-.09l.17,9.82,7.78-.11,20.4,28.51,5.71,.11v-7.46l13.41-12.29c-.59,2.44-.34,5.09,.74,7.35,1.51,.65,3.27-.04,4.85,.41,.93,.27,1.7,.92,2.59,1.29,1.01,.44,2.14,.52,3.25,.57,2.99,.14,5.97,.18,8.97,.09-.51,1.57-2.06,2.53-3.21,3.73-2.29,2.36-3.13,6.03-2.09,9.14,.25,.74,.62,1.48,1.28,1.88,.76,.47,1.74,.37,2.57,.04,1.37-.55,2.44-1.73,3.05-3.08,.6-1.34,.77-2.87,.65-4.34-.06-.73-.14-1.57,.36-2.11,.54-.56,1.44-.48,2.2-.38,3.26,.43,6.55,.54,9.83,.33,1.04-.07,2.19-.14,2.99,.54,.37,.31,.61,.76,.84,1.19,.72,1.34,1.44,2.66,2.15,4,.19,0,.37,.03,.56,.05l-6.99,24.86-15.35,12.42Z"/><polygon class="ie" points="286.12 196.91 292.84 196.79 292.67 210.34 280.89 216.73 269.13 216.63 265.45 213.05 261.78 212.78 258.1 217.92 251.4 213.97 251.86 204.69 246.25 210.02 244.39 209.38 243.94 200.79 248.53 182.45 247.4 182.28 260.43 167.75 273.07 137.03 264.58 135.94 270.9 130.83 279.05 136.91 279.4 158.51 284.33 161.99 290.45 161.99 290.45 168.59 284.69 168.59 284.57 176.39 290.09 186.59 294.76 186.78 286.12 196.91"/><path class="ie" d="M353.76,272.19h-.05c-.04,.57-.09,1.14-.14,1.71l-8.33-4.24-4.76,.16-.5,11.59-4.34,10.68-6.01,.5,.42,6.17s.13,.11,.37,.31c-8.12,14.19-23.9,14.96-29.19,14.79-.8-.65-1.53-.98-1.53-.98l-10.1,4.94-5.48,.65-.11-14.5-6.01-14.39-16.54,.11-8.91-6.55-9.67-.8,.05-.6,11.52-11.28,20.52-.12,.96-9.72,5.64-9.48-.07-3.45-.15-7.32-.02-.86h4.68l-.36-5.64,5.81,.1,.32,4.59,8.25-.59,13.01-9.09,.83,5.84,13.1,.5,7.67,5.84,7.59-.25s11.01,10.26,10.92,11.67c-.09,1.42-7.59,5.43-7.43,8.76,.14,2.67,5.79,8.68,8.03,10.95Z"/><path class="ie" d="M281.5,247.69h-12.91v-10.28l12.76,2.96,.15,7.32Z"/><path class="ie" d="M339.08,312.81c-.03,.69-.09,1.4-.44,1.98-.46,.74-1.33,1.11-2.15,1.4-3.05,1.06-6.64,1.87-8.14,4.73-.31,.61-.54,1.33-1.11,1.73-.47,.32-1.07,.37-1.63,.41-4.19,.23-8.38,.28-12.56,.14-2.14-.07-4.33-.17-6.34,.56-.95,.36-1.85,.89-2.83,1.16-.86,.22-1.75,.22-2.64,.22-.66,0-1.32,0-1.98,0,1.54-2.02,3.84-5.35,3.99-7.42,.12-1.74-1-3.05-2.01-3.85,5.29,.17,21.07-.6,29.19-14.79,1.25,1.05,5.52,4.64,8.69,7.38-.09,2.1,.09,4.27-.03,6.36Z"/><path class="ie" d="M303.24,317.72c-.14,2.07-2.45,5.4-3.99,7.42h0c-.99,0-1.98,0-2.97,0-.48,0-1.02,.02-1.39,.33-.32,.27-.44,.71-.6,1.1-.86,2.05-3.13,3.16-5.32,3.51-2.19,.36-4.45,.15-6.64,.5-2.19,.35-4.47,1.43-5.36,3.46-.36,.83-.46,1.76-.77,2.61-.63,1.7-2.06,2.95-3.44,4.13-1.17,1-2.32,1.99-3.48,2.99l-2.59-2.88-6.36,.13-8.88-20.65-19.8-9.6-7.35-.31c3.38-2.47,6.64-4.63,9.26-5.94l.37-9.6,5.52-7.92,2.99,.6,.43-5.28,9.67,.8,8.91,6.55,16.54-.11,6.01,14.39,.11,14.5,5.48-.65,10.1-4.94s.73,.33,1.53,.98c1.01,.81,2.13,2.12,2.01,3.85Z"/><path class="ie" d="M242.88,282.34l-.43,5.28-2.99-.6-5.52,7.92-.37,9.6c-2.62,1.31-5.89,3.47-9.26,5.94-6.66,4.84-13.76,10.86-17.23,13.87v-.03c-2.62,1.4-5.8,2.77-8.68,3.52v-13.54c-1.1,.19-2.06,.39-3.17,.35-.2,0-.43-.02-.58-.15-.13-.11-.18-.27-.22-.43-.17-.57-.29-1.16-.36-1.75-.87-.02-1.73-.03-2.59-.04-.25,0-.5,0-.69-.16-.3-.26-.24-.71-.34-1.09-.27-.97-1.53-1.17-2.54-1.18-4.59-.09-9.18-.27-13.76-.57-.24-.02-.49-.04-.69-.19-.12-.1-.2-.25-.27-.39-.46-.94-.67-1.99-.6-3.04,.08-1.39,.63-2.68,1.08-3.97,.48-1.38,.64-2.59,.7-4.03v-25.23l7.49-14.41,11.63-.92,7.95,3.97,7.65,1.23,5.2-5.5v8.26l8.26,1.23v-.04l19.6,16.06,.75,.06Z"/><path class="ie" d="M266.37,346.27c-.66,.56-1.31,1.12-1.97,1.68-1.29,1.11-2.68,2.43-2.68,4.13v22.78c-2.31,1.46-4.44,3.28-5.78,5.67-.49,.88-.93,1.83-1.67,2.51-.7,.64-1.6,.98-2.36,1.56l-1.19-10.33-22.56-13.08-22.22-.29c3.05-1.51,5.59-3.74,7.4-6.59v-3.88l14.45,.2s11.4,8.64,17.17-1.8l11.99,.37,9.41-2.92Z"/><path class="ie" d="M269.28,343.78c-.97,.83-1.94,1.66-2.91,2.48l-9.41,2.92-11.99-.37c-5.77,10.45-17.17,1.8-17.17,1.8l-14.45-.2v-4.82h-6.29v-21.24c3.47-3.01,10.57-9.03,17.23-13.87l7.35,.31,19.8,9.6,8.88,20.65,6.36-.13,2.59,2.88Z"/><path class="ie" d="M251.92,384.59l-.1,.08c-2.83,2.26-2.09,7.13-4.75,9.61-.77,.71-1.74,1.15-2.54,1.81-3.16,2.58-2.96,7.68-5.77,10.64-1.63,1.71-4.01,2.43-6.18,3.37-2.49,1.07-4.94,2.63-6.16,5.05-1.13,2.24-1.84,4.7-2.21,7.18-.11,.71-.21,1.48-.66,2.04-.62,.77-1.7,.95-2.62,1.3-1.39,.52-2.58,1.53-3.32,2.82-.27,.48-.5,1-.94,1.34-.33,.26-.75,.37-1.16,.44-1.48,.27-3.04,.13-4.44-.41,.21-1.54,1.44-2.72,2.53-3.84,1.08-1.11,2.17-2.48,2.03-4.04-.09-1.05-.73-1.97-1-2.99-.18-.68-.19-1.42-.53-2.04-.42-.75-1.22-1.17-1.91-1.69-1.17-.9-2.02-2.21-2.36-3.64-.36-1.49-.2-3.14-.97-4.46-.99-1.72-3.18-2.31-5.16-2.36-1.97-.07-4.02,.22-5.9-.39-3.56-1.16-5.36-5.06-8.29-7.39-3.37-2.69-7.95-3.11-12.25-3.43,1.22-2.61,3.72-4.41,5.84-6.36,2.13-1.95,4.22-4.22,4.7-7.06,.18-1.03,.14-2.09,.44-3.08,.36-1.14,1.14-2.08,1.95-2.96,1.48-1.61,3.1-3.1,4.81-4.45,1.35-1.05,2.87-2.17,3.28-3.84,.25-1.02,.03-2.12,.29-3.14,2.51-.08,4.98-.71,7.25-1.8h.1l22.22,.29,22.56,13.08,1.19,10.33Z"/><path class="ie" d="M292.67,210.34l-.31,23.65-.91-.02-5.81-.1,.36,5.64h-4.68l.02,.86-12.76-2.96v10.28h12.91l.07,3.45-5.64,9.48-.96,9.72-20.52,.12-11.52,11.28-.05,.6-.75-.06-19.6-16.06-.92-17.7,23.25-30.28-.47-8.86,1.86,.64,5.61-5.33-.46,9.28,6.7,3.95,3.67-5.14,3.67,.27,3.67,3.58,11.76,.09,11.78-6.39Z"/><path class="ie" d="M352.25,155.74l-.07,2.9-.17,7.42-5.64,4.56,.07,3.25-.25-.05-2.59-.55-5.15,5.52-24.24-.37,5.16,5.76-5.64,6.48-8.4,3.85-3.96-7.44-6.61-.28,.48-.56,.12-13.32s2.88-18.71,23.52-23.39h8.04v-19.92l11.13-18.05h0c2.2,.33,4.43,.42,6.67,.48l7.52,43.73Z"/></g><g id="b" transform="translate(-338 -82)"><g class="ht"><g id="d"><g id="e" transform="translate(376 112)"><g class="ia"><g id="g"><g id="h"><g class="il"><g id="j"><path id="k" class="ig" d="M328.34,158.99v-18.88c0-2.22-1.87-4.67-4.17-5.47l-9.53-3.11v-13.09h-10v13.09l-9.53,3.11c-2.3,.8-4.17,3.25-4.17,5.47v18.88h37.39Z"/><path id="l" class="h`" d="M317.98,115.77c0,11.31-5.2,13.57-8.27,13.57s-8.27-2.26-8.27-13.57c0-5.69,3.7-9.17,8.27-9.17s8.27,3.48,8.27,9.17"/><path id="m" class="h`" d="M302.95,117.98c.34,1.79-.06,3.37-.88,3.52s-1.76-1.17-2.1-2.96,.06-3.37,.88-3.52,1.76,1.17,2.1,2.96"/><path id="n" class="h`" d="M316.35,117.98c-.34,1.79,.06,3.37,.88,3.52s1.76-1.17,2.1-2.96-.06-3.37-.88-3.52-1.76,1.17-2.1,2.96"/><path id="o" class="hm" d="M319.51,179.51l8.89-39.4c0-2.23-1.88-4.71-4.2-5.51l-9.51-3.13-4.91,3.07-5.15-3.07-9.51,3.13c-2.32,.8-4.2,3.28-4.2,5.51l7.06,40.8,21.55-1.4Z"/><path id="p" class="hp" d="M304.65,120.08v7.26c1.53,2.55,3.59,3.63,5,3.88,1.88,.38,3.82-.33,5-1.84v-7.51l-5-2.15-5,.36Z"/><path id="q" class="hm" d="M317.13,119.29l-7.48-1.67-7.48,1.67c.25,2.41,.94,5.9,.94,5.9,1.78,3.28,4.65,4.24,6.53,4.24,2.74,.01,5.26-1.51,6.53-3.94,0,0,.7-3.82,.95-6.2"/><path id="r" class="hr" d="M309.65,117.97v3.24s-6.09,1.47-7.05-1.6l7.05-1.65Z"/><path id="s" class="hj" d="M311.56,134.57h-3.53v2.2l.88,.82-.65,18.82,1.54,1.17,1.54-1.17-.65-18.82,.88-.82v-2.2Z"/><path id="t" class="hr" d="M309.77,134.54l-2.8,3.66-4.17-6.02,1.86-1.79,5.12,4.16Z"/><path id="u" class="hr" d="M309.77,134.54l2.91,3.66,3.83-6.02-1.87-1.8-4.87,4.16Z"/><path id="v" class="ig" d="M316.97,112.69c.17-.06,.35-.1,.53-.12-1.14-3.69-4.2-5.84-7.8-5.84-4.16,0-7.6,2.89-8.19,7.69,.03,.28,.04,.56,.04,.86,.57-1.19,.88-2.48,.93-3.8-.02-.96,2.62-2.96,7.12-.57,4.78-1.1,6.96,.87,7.35,1.79"/><path id="w" class="ha" d="M302.83,106.32c-3.06,4.03-1.26,5.84-1.26,8.9,0,0,.97-2.06,.93-3.89-.02-.95,2.62-3.22,7.12-1.27,5.31-1.75,7.42,.62,7.42,1.32,0,1.4-.43,1,.72,4.1,.99-3.91,1.38-6.29-1.41-9.67-2.76-3.34-9.8-4.4-13.52,.52"/><path id="x" class="hm" d="M301.52,114.39l-.37,.68,1.12,5.05,.25-.85-1-4.89Z"/><path id="y" class="hm" d="M317.75,114.39l.37,.68-1.12,5.05-.25-.85,1-4.89Z"/><path id="a`" class="hf" d="M312.78,105.62c-6.92,.3-9.47,3.9-9.47,1.95s2.49-3.79,5.56-4.11,5.86,2.07,3.92,2.16"/><path id="aa" class="ib" d="M320.98,175.12l-11.2,.34-10.96,.12s-.75,7.08-.75,14.14c0,3.53,3.26,56.96,3.26,56.96l5.49-.14,2.25-56.59,.03-.03h1.15l2.63,57.33,5.82,.1s3.04-55.76,3.24-58.3c.28-3.51-.97-13.94-.97-13.94"/><path id="ab" class="hb" d="M325.6,198.17c0-19.13,2.49-57.83,2.49-57.83,0-2.48-1.88-5.21-4.19-6.1l-7.96-3.09s-3.66,44.5,3.65,48.78c.79,21.57,6.01,21.42,6.01,18.23"/><path id="ac" class="ii" d="M319.52,143.18l-1.31-4.07,1.03-.66-.69-6.45s-2.5-1.71-2.61-1.02c-2.24,14.33-.7,31.9-.7,31.9l4.28-19.7Z"/><path id="ad" class="hr" d="M324.06,134.54l-4.97-1.77,.53,2.8c2.49-.17,5.73-.49,4.45-1.03"/><rect id="ae" class="hj" x="318.26" y="145.2" width="6.14" height="3.08"/><rect id="af" class="ii" x="318.43" y="145.36" width="5.81" height="2.75"/><rect id="ag" class="ij" x="320.93" y="144.87" width=".81" height=".68"/><rect id="ah" class="ij" x="318.81" y="145.63" width="1.84" height="2.26"/><path id="ai" class="hk" d="M307.16,250.75c0,.99-1.14,1.78-2.54,1.78h-1.69c-1.4,0-2.54-.8-2.54-1.78v-3.81c0-.99,1.14-1.15,2.54-1.15h1.69c1.4,0,2.54,.16,2.54,1.15v3.81Z"/><path id="aj" class="in" d="M307.16,249.72c0,.74-1.14,1.34-2.54,1.34h-1.69c-1.4,0-2.54-.6-2.54-1.34v-2.85c0-.74,1.14-2.32,2.54-2.32h1.69c1.4,0,2.54,1.59,2.54,2.32v2.85Z"/><path id="ak" class="hk" d="M319.17,250.75c0,.99-1.14,1.78-2.54,1.78h-1.69c-1.4,0-2.54-.8-2.54-1.78v-3.81c0-.99,1.14-1.15,2.54-1.15h1.69c1.4,0,2.54,.16,2.54,1.15v3.81Z"/><path id="al" class="in" d="M319.17,249.72c0,.74-1.14,1.34-2.54,1.34h-1.69c-1.4,0-2.54-.6-2.54-1.34v-2.85c0-.74,1.14-2.32,2.54-2.32h1.69c1.4,0,2.54,1.59,2.54,2.32v2.85Z"/><path id="am" class="ij" d="M323.99,150.89c1.28,10.67-.61,13.05-5.1,28.09-.07,.05-.13,.11-.17,.18,.25,.31,.54,.57,.88,.77,.12,3.32,.35,6.12,.64,8.48,2.09-2.14,4-4.44,5.74-6.87,.39-10.75,1.02-22.47,1.49-30.65h-3.47Z"/><path id="an" class="hb" d="M323.77,183.01c-1.05,.66-5.31-4.87-3.87-5.8,6.18-15.01,7.3-15.37,4.06-26.56,1.01-4.4-.88-13.36,.6-13.82l.11-2.22c5.16,2.76,5.1,5.59,6.84,10.58,2.64,7.59,6.46,20.1-7.74,37.82"/><path id="ao" class="ho" d="M315.36,184.06c1.54,.99,3.08,1.99,4.71,2.85,.52-.96,2.3-3.33,2.76-4.61-.78-.1-2.08-1.39-2.73-2.62-1.16,.57-3.29,1.19-3.6,1.72-.61,1.03-.79,2.2-1.14,2.66"/><path id="ap" class="hb" d="M293.31,198.17c0-19.13-2.49-57.83-2.49-57.83,0-2.48,1.88-5.21,4.19-6.1l7.96-3.09s3.66,44.5-3.65,48.78c-.79,21.57-6.01,21.42-6.01,18.23"/><path id="aq" class="ii" d="M299.39,143.18l1.31-4.07-1.03-.66,.69-6.45s2.5-1.71,2.61-1.02c2.24,14.33,.7,31.9,.7,31.9l-4.28-19.7Z"/><path id="ar" class="hr" d="M294.85,134.54l4.97-1.77-.53,2.8c-2.49-.17-5.73-.49-4.45-1.03"/><path id="as" class="ij" d="M294.92,150.89c-1.28,10.67,.61,13.05,5.1,28.09,.07,.05,.13,.11,.17,.18-.25,.31-.54,.57-.88,.77-.12,3.32-.35,6.12-.64,8.48-2.09-2.14-4-4.43-5.74-6.87-.39-10.75-1.02-22.47-1.49-30.65h3.47Z"/><path id="at" class="hb" d="M295.14,183.01c1.05,.66,5.31-4.87,3.87-5.8-6.18-15.01-7.3-15.37-4.06-26.56-1.01-4.4,.88-13.36-.6-13.82l-.11-2.22c-5.16,2.76-5.1,5.59-6.84,10.58-2.64,7.59-6.46,20.1,7.74,37.82"/><path id="au" class="ho" d="M303.56,184.06c-1.54,.99-3.08,1.99-4.71,2.85-.52-.96-2.3-3.33-2.76-4.61,.78-.1,2.08-1.39,2.73-2.62,1.16,.57,3.29,1.19,3.6,1.72,.61,1.03,.79,2.2,1.14,2.66"/><path id="av" class="hg" d="M196,137.16v-3.01c-.12-2.42-1.59-4.57-3.81-5.55l-8.21-3.16v-13.29h-10.16v13.29l-8.21,3.16c-2.22,.98-3.7,3.13-3.81,5.55v3.01h34.19Z"/><path id="aw" class="ic" d="M173.83,113.82v7.37c1.55,2.59,3.64,3.68,5.08,3.94,1.91,.39,3.88-.33,5.08-1.87v-7.63l-5.08-2.18-5.08,.37Z"/><path id="ax" class="he" d="M187.32,109.53c0,11.48-5.29,13.77-8.41,13.77s-8.41-2.3-8.41-13.77c0-5.78,3.77-9.31,8.41-9.31s8.41,3.53,8.41,9.31"/><path id="ay" class="he" d="M172.1,111.68c.34,1.82-.06,3.42-.9,3.57s-1.79-1.19-2.13-3,.06-3.42,.9-3.57,1.79,1.19,2.13,3"/><path id="b`" class="he" d="M185.71,111.68c-.34,1.82,.06,3.42,.9,3.57s1.79-1.19,2.13-3-.06-3.42-.9-3.57-1.79,1.19-2.13,3"/><path id="ba" class="hg" d="M187.28,108.56c-3.33-4.48-13.18-5.41-16.75,.06v.02s6.84-6.23,16.75-.08"/><path id="bb" class="hw" d="M186.75,105.95c-.38,10.55-2.49,15.78-7.85,15.78s-7.47-5.23-7.85-15.78c-.38,1.16-.57,2.36-.56,3.58,0,11.48,5.29,14.3,8.41,14.3s8.41-2.83,8.41-14.3c0-1.22-.18-2.43-.56-3.58"/><path id="bc" class="hl" d="M170.5,101.3v7.37c3.55-5.54,13.46-4.61,16.79-.1v-7.51c-1.71-2.31-5.14-5.88-8.55-5.88-3.26,0-6.51,3.42-8.24,6.12"/><path id="bd" class="hh" d="M178.75,95.65c-2.15-.02-6.07,3.05-7.68,5.95v2.74c6.19-3.58,7.68-8.69,7.68-8.69"/><path id="be" class="hw" d="M177.93,120.39l-1.29,1.29,1.23,1.23h2.17l1.23-1.23-1.29-1.29h-2.06Z"/><path id="bf" class="hw" d="M175.91,117.06c-.88,.88,0,4.97,0,4.97h.61s-.7-3.27,0-3.97c.85-.85,3.98-.85,4.83,0,.7,.7,0,3.97,0,3.97h.61s.88-4.09,0-4.97c-1.07-1.07-4.99-1.07-6.06,0"/><path id="bg" class="ib" d="M166.44,203.38l-1.23-.02c1.07,11.43,1.96,20.58,2.78,28.95,.07,.75,.28,4.18,.35,4.84,.06,.6-1.02,3.84-.97,4.36,.26,2.68,1.52,3.52,1.52,3.52l7.09,.46,.71-3.33-.56-3.63,.72-34.95c-3.47-.06-6.94-.13-10.4-.2"/><path id="bh" class="ib" d="M179.94,203.63l1.62,35.24-.72,3.17,1.01,3.27,6.36,.11s1.2-1.01,1.45-3.71c.07-.73-.94-4.3-.86-5.18,.74-8.24,2.06-20.45,3.17-32.73-4.01-.04-8.02-.09-12.04-.16"/><path id="bi" class="hl" d="M193.91,211.09c0-9.61-.07-31.98,1.23-50.17,.65-8.99,1.83-17.93,3.54-26.78,0-2.45-1.99-5.15-4.44-6.03l-9.47-3.42-6.06,12.36-5.76-12.36-9.48,3.42c-2.45,.88-4.44,3.58-4.44,6.03,0,0,2.2,9.54,3.34,27.08,1.05,16.08,1.04,39.79,1.04,49.82,0,4.42,30.49,4.3,30.49,.05"/><path id="bj" class="hh" d="M183.62,129.28l1.47-3.94,8.95,3.24c2.11,.76-10.42,.7-10.42,.7"/><path id="bk" class="hh" d="M163.67,128.58l8.94-3.23,2.93,6.22s-19.54,.78-11.87-2.98"/><rect id="bl" class="hj" x="184.44" y="138.53" width="6.72" height="3.37"/><rect id="bm" class="ii" x="184.62" y="138.71" width="6.36" height="3.01"/><rect id="bn" class="ij" x="187.36" y="138.17" width=".88" height=".74"/><rect id="bo" class="ij" x="185.05" y="139" width="2.01" height="2.48"/><path id="bp" class="hk" d="M175.98,249.73c0,1.08-1.24,1.95-2.78,1.95h-1.85c-1.53,0-2.78-.87-2.78-1.95v-4.16c0-1.08,1.24-1.25,2.78-1.25h1.85c1.53,0,2.78,.18,2.78,1.25v4.16Z"/><path id="bq" class="in" d="M175.98,248.61c0,.81-1.24,1.46-2.78,1.46h-1.85c-1.53,0-2.78-.65-2.78-1.46v-3.12c0-.81,1.24-2.54,2.78-2.54h1.85c1.53,0,2.78,1.74,2.78,2.54v3.12Z"/><path id="br" class="hk" d="M188.76,249.73c0,1.08-1.24,1.95-2.78,1.95h-1.85c-1.53,0-2.78-.87-2.78-1.95v-4.16c0-1.08,1.24-1.25,2.78-1.25h1.85c1.53,0,2.78,.18,2.78,1.25v4.16Z"/><path id="bs" class="in" d="M188.76,248.61c0,.81-1.24,1.46-2.78,1.46h-1.85c-1.53,0-2.78-.65-2.78-1.46v-3.12c0-.81,1.24-2.54,2.78-2.54h1.85c1.53,0,2.78,1.74,2.78,2.54v3.12Z"/><path id="bt" class="ib" d="M193.91,144.88c1.31,10.93-.63,13.37-5.23,28.77-.07,.04-2.34,2.34-2.4,2.41,1.97,1.29,3.29,3.38,3.6,5.72,1.19-1.02,2.77-.78,4.39-3.07,.4-11.01,2.7-25.44,3.18-33.82h-3.55Z"/><path id="bu" class="hl" d="M193.68,177.77c-1.08,.68-5.44-4.98-3.96-5.94,6.33-15.37,7.47-15.74,4.16-27.2,1.03-4.51-.9-13.68,.62-14.15l.11-2.27c5.29,2.82,5.22,5.72,7,10.83,2.7,7.77,6.61,20.58-7.93,38.73"/><path id="bv" class="ho" d="M185.06,178.85c1.58,1.01,3.16,2.04,4.82,2.92,.53-.99,2.61-2.8,3.08-4.11-.58-.28-2.35-2.29-3.02-3.54-1.19,.58-3.39,1.47-3.71,2-.63,1.06-.81,2.26-1.17,2.73"/><path id="bw" class="ib" d="M164.13,144.88c-1.9,11.62,.87,16.21,7.97,31.82,.07,.04-3.65,2.66-3.95,5.08-1.2,.14-3.45-1.12-5.07-3.41-.4-11.01-2.03-25.1-2.51-33.48h3.55Z"/><path id="bx" class="hl" d="M164.35,177.77c1.08,.68,5.44-4.98,3.96-5.94-6.33-15.37-7.47-15.74-4.16-27.2-1.03-4.51,.9-13.68-.62-14.15l-.11-2.27c-5.29,2.82-5.22,5.72-7,10.83-2.7,7.77-6.61,20.58,7.93,38.73"/><path id="by" class="ho" d="M172.97,178.85c-1.58,1.01-3.16,2.04-4.82,2.92-.53-.99-2.59-2.81-3.07-4.12,1.12-.79,2.28-2.48,3.01-3.53,1.19,.58,3.39,1.46,3.71,1.99,.63,1.06,.81,2.26,1.17,2.73"/><path id="c`" class="hh" d="M172.38,189.41c.72-3.52,.59-9.35,.59-15.68-1.91,2.17-8.75,5.46-8.75,5.46,0,5.01,.35,8.19,.98,10.22h7.18Z"/><path id="ca" class="hh" d="M185.43,189.41c-.72-3.52-.59-9.35-.59-15.68,1.91,2.17,8.75,5.46,8.75,5.46,0,5.01-.35,8.19-.98,10.22h-7.18Z"/><path id="cb" class="ik" d="M224.47,125.01c1.43,0,2.59-1.16,2.59-2.59h0c0-.08,0-.16-.01-.24,.67,.77,1.84,.84,2.61,.16,.4-.35,.63-.86,.63-1.39v-.02c1.23,.74,2.82,.35,3.56-.87,.58-.97,.48-2.2-.26-3.05,1.01-.04,1.81-.89,1.77-1.9,0-.09-.01-.17-.03-.25,1.31-.58,1.91-2.11,1.33-3.42-.12-.27-.28-.51-.47-.72,1.07-.59,1.46-1.93,.87-2.99-.19-.35-.48-.65-.83-.85,1.01-1.02,.99-2.66-.03-3.67-.26-.26-.58-.46-.93-.59,.32-.97-.21-2.01-1.18-2.33-.16-.05-.33-.08-.5-.09,.94-1.08,.83-2.72-.24-3.66-.85-.75-2.09-.85-3.06-.26v-.02c0-1.02-.82-1.85-1.84-1.85-.53,0-1.04,.23-1.39,.63,0-.08,.01-.16,.01-.24,0-1.43-1.16-2.59-2.59-2.59-1.08,0-2.04,.66-2.42,1.67-.56-.85-1.71-1.09-2.56-.53-.29,.19-.52,.46-.67,.78-.83-1.17-2.45-1.43-3.62-.6-.68,.49-1.09,1.28-1.08,2.11v.03c-.95-.37-2.01,.1-2.38,1.05-.11,.29-.15,.6-.11,.91-1.4-.29-2.78,.62-3.06,2.02-.03,.17-.05,.34-.05,.52,0,.41,.1,.81,.28,1.17-.98,.27-1.56,1.29-1.29,2.27,.11,.4,.36,.75,.69,1-1.06,.28-1.69,1.36-1.41,2.42,.02,.06,.03,.11,.05,.17-.6,.81-.45,1.95,.35,2.56-.92,0-1.36,2.89,.93,2.89-.79,.64-.91,1.81-.26,2.6,.24,.3,.57,.51,.94,.61-.65,1.28-.14,2.84,1.14,3.49,.36,.18,.77,.28,1.17,.28,.18,0,.35-.02,.52-.05-.13,1.01,.58,1.93,1.59,2.07,.3,.04,.61,0,.9-.11v.03c0,1.43,1.16,2.59,2.59,2.59,.84,0,1.62-.4,2.11-1.08,.42,.93,1.52,1.34,2.45,.91,.32-.14,.59-.37,.78-.67,.38,1,1.35,1.67,2.42,1.67"/><path id="cc" class="if" d="M221.95,98.83c-5.72,0-10.36,4.11-10.36,10.83,0,8.38,2.57,12.55,5.43,14.5,.72-.09,1.38-.47,1.8-1.06,.42,.93,1.52,1.34,2.45,.91,.32-.14,.59-.37,.78-.67,.51,1.34,2.01,2.01,3.35,1.5,1-.38,1.67-1.35,1.67-2.42,0-.08,0-.16-.01-.24,.35,.4,.85,.62,1.38,.62h.02c2.17-2.32,3.86-6.34,3.86-13.14s-4.64-10.83-10.36-10.83"/><path id="cd" class="hd" d="M235.98,129.11c-.48-.55-1.08-.99-1.75-1.3l-8.38-3.54v-13.63h-7.87v13.63l-8.38,3.54c-.67,.3-1.27,.74-1.75,1.3h28.12Z"/><path id="ce" class="hp" d="M217.99,121.68c1.1,1.4,2.77,2.23,4.54,2.26,1.2-.01,2.36-.4,3.32-1.11v-12.19h-7.86v11.04Z"/><path id="cf" class="h`" d="M230.07,109.75c0,10.7-5.08,12.84-8.08,12.84s-8.08-2.14-8.08-12.84c0-5.39,3.62-8.68,8.08-8.68s8.08,3.3,8.08,8.68"/><path id="cg" class="hj" d="M229.01,109.65c-.02-.14-.14-.24-.27-.24h-5.08c-.43,0-1.08,.3-1.66,.3s-1.23-.3-1.66-.3h-5.08c-.14,0-.26,.1-.27,.24h-1.41v.5h1.4c.16,1.14,.72,3.19,1.01,3.19h3.93c.46,0,1.13-.99,1.38-1.63,.09-.39,.47-.63,.86-.54,.27,.06,.48,.27,.54,.54,.25,.63,.92,1.63,1.38,1.63h3.93c.28,0,.84-2.06,1.01-3.19h1.4v-.5h-1.41Zm-9.08,3.54c-.37,0-3.44,0-3.75,0s-1.28-3.38-.47-3.38h4.27c2.27,0,.32,3.37-.05,3.37m7.88,0c-.31,0-3.38,0-3.75,0s-2.32-3.37-.05-3.37h4.27c.81,0-.16,3.38-.47,3.38"/><g id="ch" class="hn"><g id="ci"><g class="i`"><g id="ck"><path id="cl" class="hm" d="M219.93,113.19c-.36,0-3.44,0-3.75,0s-1.28-3.38-.47-3.38h4.27c2.27,0,.32,3.37-.05,3.37"/></g></g></g></g><g id="cm" class="hn"><g id="cn"><g class="id"><g id="cp"><path id="cq" class="hm" d="M227.81,113.19c-.31,0-3.38,0-3.75,0s-2.32-3.37-.05-3.37h4.27c.81,0-.16,3.38-.47,3.38"/></g></g></g></g><path id="cr" class="if" d="M221.98,101.07c-4.46,0-8.08,3.3-8.08,8.68,0,.33,0,.66,.01,.97,.21-.38,.28-.81,.21-1.23,.76-.14,1.37-.71,1.58-1.46,.04,0,.07,.02,.11,.02,.89,.15,1.8-.12,2.47-.73,.69,.75,1.84,.87,2.67,.27,.8,1.32,2.51,1.74,3.82,.94,.14-.08,.26-.18,.38-.28,.58,.91,1.77,1.2,2.71,.67,.36,.89,1.16,1.54,2.11,1.7,.01,0,.02,0,.03,0,0,.1,0,.2,.03,.3,.01-.38,.02-.77,.02-1.18,0-5.39-3.62-8.68-8.08-8.68"/><path id="cs" class="ik" d="M234.87,110.68c-.46-5.25-4.6-12.88-9.28-13.68-3.23-.55-7.01-.77-9.82,1.23-2.89,2.06-3.2,4.14-4.13,7.32-.22,.77-.12,1.03-.45,1.68-.28,.55-.93,.65-1.07,1.43-.19,1.1,.55,2.15,1.65,2.34,1.1,.19,2.15-.55,2.34-1.65,.04-.22,.04-.44,0-.65,.76-.14,1.37-.71,1.58-1.46,.04,0,.07,.02,.11,.02,.89,.15,1.8-.12,2.47-.73,.69,.75,1.84,.87,2.67,.27,.8,1.32,2.51,1.74,3.83,.94,.13-.08,.26-.17,.38-.28,.58,.91,1.77,1.2,2.71,.67,.36,.89,1.16,1.54,2.11,1.7,.01,0,.02,0,.03,0,0,.72,.39,1.38,1.01,1.74-.53,.99-.15,2.22,.84,2.74,.99,.53,2.22,.15,2.74-.84,.1-.19,.17-.4,.21-.62,.11-.73,.13-1.46,.06-2.19"/><path id="ct" class="im" d="M218.46,102.56c-1.02,1.2,4.36,2.27,7.56,2.56,2.56,.23,4.76,.39,2.94-1.81-3.28-3.95-9.53-1.88-10.49-.74"/><path id="cu" class="hd" d="M212.14,165.37l9.52,3.81,9.31-3.35s2.47,7.21,2.47,14.39c0,3.59-3.61,32.12-3.61,32.33l-4.34,33.92-2.9,1.91,.19-20.13,.13-20.27s-.36-17.18-.19-21.66c.05-1.47,.5-5.86,.5-5.86l-1-.03h-1.81s.49,4.33,.55,5.79c.19,4.49-.21,21.69-.21,21.69l.21,20.14-.12,20.24-2.89-1.21-4.23-34.02c0-1.48-3.55-30.34-3.72-32.92-.24-3.57,2.14-14.78,2.14-14.78"/><path id="cv" class="io" d="M232.25,165.54l-.16-4.13h-21.15l-.1,3.77c-.12,.4-3.06,10.21-2.95,13.62,.04,1.29,1.35,9.38,2.68,17.64,.6,3.74,1.78,8.83,1.78,11.16,0,4.74,18.7,4.73,18.94,0,.42-8.22,4.4-26.14,4.28-28.75-.31-6.73-3.29-13.25-3.32-13.31"/><path id="cw" class="hy" d="M214.26,201.04c-1.75-7.04-3.87-15.53-4.11-17.06-.48-3.05-.16-11.69,.08-16.67-.88,3.15-2.42,9.04-2.34,11.51,.04,1.29,.97,9.29,2.3,17.54,.6,3.74,1.25,7.71,1.77,11.12,.36,2.39,4.19,3.05,4.19,3.05-.47-1.93-1.3-7.17-1.88-9.49"/><path id="cx" class="hy" d="M232.97,167.31c.42,3.84,.95,10.68,.33,16.71-.35,3.35-4.69,19.76-6.47,26.62,0,0,2.93-.52,4.05-1.97,1.55-2.01,4.82-27.21,4.69-29.82-.22-4.63-1.69-9.16-2.6-11.54"/><path id="cy" class="hy" d="M217.05,245.23s-1.75,2.88-1.89,3.84-.45,3.68,.34,4.02,4.12,.4,4.57,.11,1.42-2.2,1.5-3.28-.57-5.4-.57-5.4l-3.96,.7Z"/><path id="d`" class="hd" d="M217.13,244.88s-1.8,3.6-.63,5.03c.47,.57,4.69-.52,4.51-5.35s-3.88,.32-3.88,.32"/><path id="da" class="hy" d="M226.4,245.23s1.75,2.88,1.89,3.84,.45,3.68-.34,4.02-4.12,.4-4.57,.11-1.42-2.2-1.51-3.28,.57-5.4,.57-5.4l3.96,.7Z"/><path id="db" class="hd" d="M226.32,244.88s1.8,3.6,.63,5.03c-.47,.57-4.69-.52-4.51-5.35s3.88,.32,3.88,.32"/><path id="dc" class="io" d="M232.02,162.76l6.02-29.84c0-2.32-1.61-4.87-3.59-5.7l-8.43-3.54c-1.02,1.89-2.42,3.54-4.11,4.86-1.64-1.35-3.01-3-4.04-4.86l-8.43,3.54c-1.98,.83-3.59,3.39-3.59,5.7l6.51,29.84h19.65Z"/><path id="dd" class="hb" d="M239.35,187.33c-.81-7.58-5.43-23.12-5.49-29.07-.06-6.62,4.76-25.68,4.76-25.68,0-2.22-2.01-5.1-4.08-5.9l-6.58-2.53-5.45,27.56,.2,43.03s17.21-2.04,16.64-7.4"/><path id="de" class="ii" d="M230.64,128.02l-.44-2.72,4.7,1.89c2.01,.78-4.26,.84-4.26,.84"/><path id="df" class="ii" d="M231.13,135.37l-1.42-2.19,.77-2.25-.9-6.16-1.62-.62-5.21,26.32,8.37-15.1Z"/><rect id="dg" class="hj" x="228.99" y="138.64" width="6.88" height="3.45"/><rect id="dh" class="ii" x="229.17" y="138.82" width="6.51" height="3.08"/><rect id="di" class="ij" x="231.98" y="138.27" width=".9" height=".76"/><rect id="dj" class="ij" x="229.61" y="139.13" width="2.06" height="2.54"/><g id="dk" class="ih"><g id="dl"><g class="hi"><g id="dn"><path id="do" class="hv" d="M235.8,169.93c-1.14,2.42-2.4,4.78-3.78,7.06-1.43,.95,1.77,4.93,2.81,4.26,.99-1.25,1.87-2.49,2.68-3.72-.56-2.5-1.16-5.11-1.71-7.6"/></g></g></g></g><path id="dp" class="hd" d="M233.13,175.33c-1.16,.56-3.54,1.8-3.18,2.37,.48,.74-1.04,2.11-1.67,2.89s4.63,3.96,5.87,2.45c.63-.77,1.36-2.9,1.92-4.79-.81-.14-2.21-1.58-2.95-2.91"/><path id="dq" class="ii" d="M228.31,176.43s-.81,14.54,.53,14.34,6.88-1.73,8.03-4.02-1.15-7.46-1.15-7.46l-7.41-2.87Z"/><path id="dr" class="hb" d="M236.45,178.2c-1.05,.66-4.92-4.06-3.5-5.01,10.27-17.18,7.4-19.04,3.46-31.15,.79-4.68-2.42-11.47-.92-11.9v-2.83c5.44,3.16,5.53,6.64,7.59,12.05,3.13,8.23,5.38,23.67-6.63,38.83"/><path id="ds" class="hb" d="M204.7,187.33c.81-7.58,5.43-23.12,5.49-29.07,.06-6.62-4.76-25.68-4.76-25.68,0-2.22,2.01-5.1,4.08-5.9l6.58-2.53,7.37,29.09-.75,41.5s-18.58-2.04-18.01-7.4"/><path id="dt" class="ii" d="M213.42,128.02l.44-2.72-4.7,1.89c-2.02,.78,4.26,.84,4.26,.84"/><path id="du" class="ii" d="M212.92,135.37l1.42-2.19-.77-2.25,.9-6.16,1.62-.62,7.37,29.09-10.54-17.86Z"/><g id="dv" class="ih"><g id="dw"><g class="hu"><g id="dy"><path id="e`" class="hv" d="M208.25,169.93c1.14,2.42,2.4,4.78,3.78,7.06,1.43,.95-1.77,4.93-2.81,4.26-.99-1.25-1.87-2.49-2.68-3.72,.56-2.5,1.16-5.11,1.71-7.6"/></g></g></g></g><path id="ea" class="hd" d="M210.92,175.33c1.16,.56,3.54,1.8,3.18,2.37-.48,.74,1.04,2.11,1.67,2.89s-4.63,3.96-5.87,2.45c-.63-.77-1.36-2.9-1.92-4.79,.81-.14,2.21-1.58,2.95-2.91"/><path id="eb" class="ii" d="M215.75,176.43s.81,14.54-.53,14.34-6.88-1.73-8.03-4.02,1.15-7.46,1.15-7.46l7.41-2.87Z"/><path id="ec" class="hb" d="M207.61,178.2c1.05,.66,4.92-4.06,3.5-5.01-10.27-17.18-7.4-19.04-3.46-31.15-.79-4.68,2.42-11.47,.92-11.9v-2.83c-5.44,3.16-5.53,6.64-7.59,12.05-3.13,8.23-5.38,23.67,6.63,38.83"/><path id="ed" class="ij" d="M226.47,147.82c-1.68-1.96-2.82-5.6-2.83-9.79h.34c0,3.88,1,7.27,2.49,9.2v.59Z"/><path id="ee" class="ij" d="M232.23,147.13c1.44-1.95,2.39-5.29,2.4-9.1h.34c0,4.12-1.11,7.7-2.75,9.69v-.59Z"/><path id="ef" class="ij" d="M231.85,147.79c0,.14,.11,.25,.24,.25,.14,0,.25-.11,.25-.24h0v-.74c0-.14-.11-.24-.25-.24-.13,0-.24,.11-.24,.24v.73Z"/><path id="eg" class="ij" d="M226.35,147.79c0,.14,.11,.24,.25,.24,.13,0,.24-.11,.24-.24v-.73c0-.14-.11-.25-.24-.25-.14,0-.25,.11-.25,.24h0v.74Z"/><path id="eh" class="ij" d="M231,147.5c0,.25,.2,.44,.44,.44h.06c.25,0,.44-.2,.44-.44s-.2-.44-.44-.44h-.06c-.25,0-.44,.2-.44,.44"/><path id="ei" class="ij" d="M226.71,147.5c0,.25,.2,.44,.44,.44h.06c.25,0,.44-.2,.44-.44s-.2-.44-.44-.44h-.06c-.25,0-.44,.2-.44,.44"/><path id="ej" class="hj" d="M224.16,138.28v-.17c.01-5.92,2.33-10.73,5.15-10.73s5.14,4.81,5.15,10.73v.17h.69v-.17c-.01-6.34-2.64-11.5-5.84-11.5s-5.83,5.16-5.84,11.5v.17h.69Z"/><path id="ek" class="hj" d="M226.33,123.11c1.5,.98,2.65,2.4,3.29,4.07h-.57c-.58-1.36-1.52-2.53-2.72-3.39v-.68Z"/><path id="el" class="hj" d="M214.08,144.81h.64c-.86-8.09,1.3-20.09,2.53-20.99v-.68c-1.53,1.04-3.76,10.59-3.17,21.68"/><path id="em" class="hj" d="M214.41,151.96c2.04,0,3.7-1.65,3.71-3.7,0-2.04-1.65-3.7-3.7-3.71-2.04,0-3.7,1.65-3.71,3.7h0c0,2.05,1.66,3.7,3.7,3.71"/><path id="en" class="ij" d="M217.87,148.26c0-1.91-1.55-3.46-3.46-3.46-1.91,0-3.46,1.55-3.46,3.46,0,1.91,1.55,3.46,3.46,3.46h0c1.91,0,3.46-1.55,3.46-3.46"/><path id="eo" class="hs" d="M215.26,148.26c0-.46-.38-.84-.84-.84-.46,0-.84,.38-.84,.84,0,.46,.38,.84,.84,.84s.84-.38,.84-.84h0"/><path id="ep" class="hb" d="M212.97,148.89c.61,.8,1.75,.95,2.55,.34,.13-.1,.24-.21,.34-.34h1.1c-.1,1.41-1.33,2.46-2.74,2.36-1.26-.09-2.27-1.1-2.36-2.36h1.1Z"/><path id="eq" class="ij" d="M314.55,154.05c-1.68-1.96-2.82-5.6-2.83-9.79h.34c0,3.88,1,7.27,2.49,9.2v.59Z"/><path id="er" class="ij" d="M320.32,153.36c1.44-1.95,2.39-5.29,2.4-9.1h.34c0,4.11-1.11,7.7-2.75,9.69v-.59Z"/><path id="es" class="ij" d="M319.94,154.02c0,.14,.11,.24,.24,.24s.24-.11,.24-.24v-.73c0-.14-.11-.24-.24-.24s-.24,.11-.24,.24v.73Z"/><path id="et" class="ij" d="M314.43,154.02c0,.14,.11,.24,.24,.24s.24-.11,.24-.24v-.73c0-.14-.11-.24-.24-.24s-.24,.11-.24,.24v.73Z"/><path id="eu" class="ij" d="M319.08,153.73c0,.25,.2,.44,.44,.44h.06c.25,0,.44-.2,.44-.44s-.2-.44-.44-.44h-.06c-.25,0-.44,.2-.44,.44"/><path id="ev" class="ij" d="M314.8,153.73c0,.25,.2,.44,.44,.44h.06c.25,0,.44-.2,.44-.44s-.2-.44-.44-.44h-.06c-.25,0-.44,.2-.44,.44"/><path id="ew" class="hj" d="M312.24,144.51v-.17c.01-5.92,2.33-10.73,5.15-10.73s5.14,4.81,5.15,10.73v.17h.69v-.17c-.01-6.34-2.64-11.5-5.84-11.5s-5.83,5.16-5.84,11.5v.17h.69Z"/><path id="ex" class="hj" d="M314.41,129.35c1.5,.98,2.65,2.4,3.29,4.07h-.57c-.58-1.36-1.52-2.53-2.72-3.39v-.68Z"/><path id="ey" class="hj" d="M301.75,150.63h.64c-.86-8.09,1.3-20.09,2.53-20.99v-.68c-1.53,1.04-3.76,10.59-3.17,21.68"/><path id="f`" class="hj" d="M302.08,157.78c2.04,0,3.7-1.66,3.7-3.7s-1.66-3.7-3.7-3.7c-2.04,0-3.7,1.66-3.7,3.7h0c0,2.04,1.66,3.7,3.7,3.7"/><path id="fa" class="ij" d="M305.54,154.08c0-1.91-1.55-3.46-3.46-3.46-1.91,0-3.46,1.55-3.46,3.46s1.55,3.46,3.46,3.46h0c1.91,0,3.46-1.55,3.46-3.46"/><path id="fb" class="hs" d="M302.92,154.08c0-.46-.38-.84-.84-.84-.46,0-.84,.38-.84,.84s.38,.84,.84,.84,.84-.38,.84-.84h0"/><path id="fc" class="hb" d="M300.64,154.71c.61,.8,1.75,.95,2.55,.34,.13-.1,.24-.21,.34-.34h1.1c-.1,1.41-1.33,2.46-2.73,2.36-1.26-.09-2.27-1.1-2.36-2.36h1.1Z"/><path id="fd" class="hb" d="M251.5,210.83c-.45,0-.91-.02-1.36-.03,1.18,12.62,2.16,22.72,3.07,31.97,.08,.83,.31,4.62,.38,5.35,.07,.66-1.13,4.24-1.07,4.82,.29,2.96,1.68,3.88,1.68,3.88l7.83,.51,.78-3.68-.62-4.01,.8-38.59c-3.83-.07-7.66-.14-11.49-.22"/><path id="fe" class="hb" d="M266.41,211.11l1.79,38.92-.79,3.5,1.12,3.61,7.03,.12s1.33-1.11,1.6-4.09c.07-.8-1.03-4.75-.95-5.72,.82-9.1,2.28-22.59,3.5-36.14-4.43-.04-8.86-.1-13.29-.18"/><path id="ff" class="ig" d="M284.87,131.54c-.77-1.69-2.14-3.03-3.85-3.77l-9.76-3.76v-15.82h-12.08v15.82l-9.76,3.76c-1.7,.74-3.07,2.08-3.85,3.77l19.43,8.21,19.87-8.21Z"/><path id="fg" class="h`" d="M275.23,105.08c0,13.66-6.3,16.39-10.01,16.39s-10.01-2.73-10.01-16.39c0-6.87,4.48-11.08,10.01-11.08s10.01,4.21,10.01,11.08"/><path id="fh" class="h`" d="M257.13,107.64c.41,2.16-.07,4.06-1.07,4.25s-2.13-1.41-2.54-3.57,.07-4.06,1.07-4.25,2.13,1.41,2.54,3.57"/><path id="fi" class="h`" d="M273.31,107.64c-.41,2.16,.07,4.06,1.07,4.25s2.13-1.41,2.54-3.57-.07-4.06-1.07-4.25-2.13,1.41-2.54,3.57"/><path id="fj" class="io" d="M255.21,92.15v11.91c4.22-6.59,16.01-5.48,19.98-.12v-12.08c-3.97-5.38-15.76-6.3-19.98,.29"/><path id="fk" class="io" d="M281.83,219.35c0-10.61-.08-35.32,1.36-55.4,.72-9.93,2.03-19.8,3.91-29.57,0-2.7-2.2-5.69-4.9-6.66l-10.46-3.78-6.69,13.64-6.36-13.65-10.46,3.78c-2.7,.97-4.9,3.96-4.9,6.66,0,0,2.43,10.53,3.69,29.9,1.15,17.75,1.15,43.94,1.15,55.02,0,4.88,33.67,4.75,33.67,.06"/><path id="fl" class="gx" d="M265.04,88.57c-3.61-.01-7.22,1.23-9.13,4.04v3.26l9.13-7.3Z"/><path id="fm" class="gx" d="M270.48,129.01l1.62-4.35,9.89,3.57c2.33,.84-11.51,.77-11.51,.77"/><path id="fn" class="gx" d="M248.45,128.24l9.88-3.57,3.23,6.87s-21.58,.86-13.11-3.3"/><path id="fo" class="ig" d="M275.18,103.93c-3.96-5.34-15.68-6.44-19.93,.07v.02s8.14-7.42,19.93-.09"/><path id="fp" class="hp" d="M259.18,110.18v8.77c1.85,3.08,4.33,4.38,6.04,4.69,2.27,.46,4.61-.4,6.04-2.22v-9.08l-6.04-2.6-6.04,.44Z"/><path id="fq" class="hm" d="M255.21,103.58l-.44,.47,1.53,6.18,.3-1.02-1.39-5.62Z"/><path id="fr" class="hm" d="M275.19,103.58l.44,.47-1.53,6.18-.3-1.02,1.39-5.62Z"/><path id="fs" class="hj" d="M273.86,103.44c-.03-.16-.17-.28-.34-.28h-6.32c-.53,0-1.34,.35-2.06,.35s-1.52-.35-2.06-.35h-6.32c-.17,0-.31,.11-.34,.28h-1.75v.58h1.74c.2,1.32,.9,3.7,1.25,3.7h4.89c.57,0,1.4-1.15,1.71-1.89,.14-.48,.65-.75,1.14-.61,.29,.09,.52,.32,.61,.61,.31,.73,1.14,1.89,1.71,1.89h4.89c.35,0,1.05-2.39,1.25-3.7h1.75v-.58h-1.75Zm-11.29,4.1c-.45,0-4.27,0-4.66,0s-1.6-3.92-.58-3.92h5.3c2.82,0,.39,3.92-.06,3.92m9.79,0c-.38,0-4.2,0-4.66,0s-2.88-3.92-.06-3.92h5.3c1.01,0-.2,3.92-.58,3.92"/><g id="ft" class="hn"><g id="fu"><g class="hq"><g id="fw"><path id="fx" class="hm" d="M262.57,107.55c-.45,0-4.27,0-4.66,0s-1.6-3.92-.58-3.92h5.3c2.82,0,.39,3.92-.06,3.92"/></g></g></g></g><g id="fy" class="hn"><g id="g`"><g class="hc"><g id="gb"><path id="gc" class="hm" d="M272.37,107.55c-.38,0-4.2,0-4.66,0s-2.88-3.92-.06-3.92h5.3c1.01,0-.2,3.92-.58,3.92"/></g></g></g></g><path id="gd" class="hm" d="M274.25,109.22l-9.03-2.02-9.03,2.02c.31,2.92,1.14,7.13,1.14,7.13,2.15,3.97,5.62,5.12,7.89,5.12,3.31,.01,6.36-1.82,7.89-4.76,0,0,.84-4.61,1.14-7.49"/><path id="ge" class="hr" d="M265.22,107.63v3.92s-7.36,1.78-8.51-1.93l8.51-1.99Z"/><rect id="gf" class="hj" x="271.38" y="139.22" width="7.42" height="3.72"/><rect id="gg" class="ii" x="271.58" y="139.41" width="7.02" height="3.32"/><rect id="gh" class="ij" x="274.61" y="138.82" width=".97" height=".82"/><rect id="gi" class="ij" x="272.05" y="139.74" width="2.22" height="2.73"/><path id="gj" class="hk" d="M262.03,262.02c0,1.19-1.37,2.15-3.06,2.15h-2.04c-1.69,0-3.07-.96-3.07-2.15v-4.6c0-1.19,1.37-1.38,3.07-1.38h2.04c1.69,0,3.06,.19,3.06,1.38v4.6Z"/><path id="gk" class="in" d="M262.03,260.78c0,.89-1.37,1.61-3.06,1.61h-2.04c-1.69,0-3.07-.72-3.07-1.61v-3.44c0-.89,1.37-2.81,3.07-2.81h2.04c1.69,0,3.06,1.92,3.06,2.81v3.44Z"/><path id="gl" class="hk" d="M276.15,262.02c0,1.19-1.37,2.15-3.06,2.15h-2.04c-1.69,0-3.07-.96-3.07-2.15v-4.6c0-1.19,1.37-1.38,3.07-1.38h2.04c1.69,0,3.06,.19,3.06,1.38v4.6Z"/><path id="gm" class="in" d="M276.15,260.78c0,.89-1.37,1.61-3.06,1.61h-2.04c-1.69,0-3.07-.72-3.07-1.61v-3.44c0-.89,1.37-2.81,3.07-2.81h2.04c1.69,0,3.06,1.92,3.06,2.81v3.44Z"/><path id="gn" class="hy" d="M243.49,134.87c-.02,.06-.04,.13-.06,.19,.49,3.09,2.5,16.25,3.74,31,9.35-1.24,30.14-7.13,32.98-7.99-.72-3.48-7.58-6.48-7.58-6.48,0,0-22.8,2.12-22.68,.32s1.29-11.55,1.29-11.55l-7.68-5.49Z"/><path id="go" class="io" d="M243.49,133.07c-2.91,9.61-7.82,28.68-3.99,31.08s33.3-5.64,37.25-6.84c-.72-3.48-4.31-4.61-4.31-4.61,0,0-24.66,3.41-24.55,1.61s3.48-14.75,3.48-14.75l-7.88-6.5Z"/><path id="gp" class="hy" d="M286.89,134.87c.02,.06,.04,.13,.06,.19-.49,3.09-2.79,18.24-4.03,32.98-9.35-1.24-25.19-10.46-28.03-11.32,.72-3.48,1.87-4.74,1.87-4.74,0,0,24.64,5.81,24.52,4.02s-2.07-15.64-2.07-15.64l7.68-5.49Z"/><path id="gq" class="io" d="M286.89,133.07c2.91,9.61,7.82,28.68,3.99,31.08s-31.03-6.99-34.98-8.19c.72-3.48,1.46-6.51,1.46-6.51,0,0,23.77,5,25.12,5.28,1.57,.32-.06-2.01-3.47-15.16l7.88-6.5Z"/><path id="gr" class="gx" d="M257.82,150.47c.49,.33,21.44,4.03,25.38,4.44,12.16,5.72-15.05,1.16-25.38-4.44"/><path id="gs" class="ii" d="M288.18,152.26c-1.87-1.63-4.19-2.63-6.66-2.87l-.23-.91c-1.17-.08-8.86,4.22-8.86,4.22,0,0,11.34,1.8,13.79,3.18,1.11,.62,3.77-2.06,1.95-3.61"/><path id="gt" class="gy" d="M281.69,149.7c3.28,1.39,6.73,4.31,6.65,3.41s-3.1-3.19-6.65-3.41"/><path id="gu" class="ii" d="M253.82,147.69l-2.63,.63s-.53-.28-2.04,.07c-.52,2.22-.94,4.1-.98,4.71,0,.08,.04,.15,.11,.19,3.14-.22,7.97,1.01,7.97,1.01l1.11-4.85s-2.38-1.51-3.53-1.75"/><path id="gv" class="gy" d="M249,148.86c-.08,.35-.16,.69-.24,1.02,1.4-.44,2.84-.76,4.29-.98-1.34-.27-2.71-.28-4.06-.03"/></g></g></g></g></g></g></g></g></g></g></g><g id="gw"/></svg>