<svg id="Camada_1" data-name="Camada 1" xmlns="http://www.w3.org/2000/svg" viewBox="0 0 670 136"><defs><style>.cls-1{fill:#54bfcd;}.cls-2{fill:#506d8f;}.cls-3{fill:#1b8992;}.cls-4{fill:#108141;}.cls-5{font-size:14px;fill:#fff;font-family:Poppins-Bold, Poppins;font-weight:700;}</style></defs><polygon class="cls-1" points="144.64 94.38 44.67 94.38 67.36 68 44.67 41.63 144.64 41.63 167.33 68 144.64 94.38"/><path class="cls-1" d="M144,93.05H47.87L69.23,68,47.87,43H144l21.55,25Zm-95.24-.38h95.07L165.08,68,143.86,43.33H48.79L69.77,68Z"/><polygon class="cls-2" points="286.3 94.38 165.68 94.38 193.05 68 165.68 41.63 286.3 41.63 313.68 68 286.3 94.38"/><path class="cls-2" d="M285.57,93.05h-116l25.77-25L169.54,43h116l26,25Zm-114.92-.38H285.36L311,68,285.36,43.33H170.65L196,68Z"/><polygon class="cls-3" points="461.2 94.38 313.67 94.38 347.15 68 313.67 41.63 461.2 41.63 494.68 68 461.2 94.38"/><path class="cls-3" d="M460.3,93.05H318.4l31.52-25L318.4,43H460.3l31.8,25Zm-140.55-.38H460L491.36,68,460,43.33H319.75l31,24.67Z"/><polygon class="cls-4" points="602.64 94.38 492.67 94.38 515.36 68 492.67 41.63 602.64 41.63 625.33 68 602.64 94.38"/><path class="cls-4" d="M602,93.05H495.87l21.36-25L495.87,43H602l21.55,25Zm-105.24-.38H601.86L623.08,68,601.86,43.33H496.79l21,24.67Z"/><text class="cls-5" transform="translate(78.48 72.19)">COLETA</text><text class="cls-5" transform="translate(197.19 72.52)">CODIFICAÇÃO</text><text class="cls-5" transform="translate(351.63 72.19)">PROCESSAMENTO</text><text class="cls-5" transform="translate(519.79 72.52)">DIVULGAÇÃO</text></svg>